<svg width="24" height="24" viewBox="0 0 24 24" fill="none" xmlns="http://www.w3.org/2000/svg">
<g clip-path="url(#clip0_2515_3123)">
<path d="M9.59178 2.1335C9.32738 1.86787 8.9586 1.70383 8.54863 1.70383C8.14016 1.70383 7.77423 1.86787 7.51297 2.1335H7.50541C7.24188 2.39791 7.07783 2.76692 7.07783 3.17544C7.07783 3.58541 7.24188 3.95134 7.50547 4.21418L7.51297 4.22011C7.77423 4.48451 8.14016 4.64699 8.54863 4.64699C8.9586 4.64699 9.32744 4.48446 9.59178 4.22011L9.59574 4.21424C9.86061 3.9514 10.0231 3.58547 10.0231 3.17544C10.0231 2.76697 9.86061 2.39791 9.59574 2.13356L9.59178 2.1335ZM8.54863 22.2772C8.93918 22.2776 9.31408 22.1237 9.59178 21.8491L9.59568 21.8413C9.86055 21.5805 10.023 21.2115 10.023 20.8059C10.023 20.3959 9.86055 20.0284 9.59568 19.7627H9.59178C9.32738 19.4939 8.9586 19.3315 8.54863 19.3315C8.14016 19.3315 7.77423 19.4939 7.51297 19.7627H7.50541C7.24188 20.0284 7.07783 20.3959 7.07783 20.8059C7.07783 21.2115 7.24188 21.5805 7.50547 21.8413L7.51297 21.8491C7.64893 21.9851 7.81041 22.0929 7.98813 22.1664C8.16585 22.2398 8.35632 22.2775 8.54863 22.2772ZM16.5664 17.8189C16.931 17.7233 17.2612 17.4893 17.4626 17.1355L17.4898 17.0839C17.6689 16.7483 17.7016 16.361 17.6059 16.0179C17.5095 15.6504 17.2727 15.3254 16.9196 15.122L16.8992 15.1082C16.5553 14.9198 16.1634 14.8788 15.8034 14.9761C15.4374 15.0673 15.1088 15.3117 14.9085 15.6626C14.7055 16.0102 14.663 16.4111 14.7603 16.7801C14.8605 17.143 15.095 17.4711 15.4458 17.6761H15.4481C15.7995 17.878 16.1976 17.9146 16.5664 17.8189ZM10.0589 10.4825C9.67221 10.0969 9.13933 9.85528 8.54868 9.85528C7.96037 9.85528 7.42876 10.0969 7.0429 10.4825C6.65879 10.8669 6.42192 11.3984 6.42192 11.9875C6.42192 12.5782 6.65879 13.1113 7.0429 13.5001C7.42876 13.8826 7.96037 14.1226 8.54868 14.1226C9.13933 14.1226 9.67221 13.8826 10.0589 13.5001C10.4438 13.1113 10.6807 12.5782 10.6807 11.9875C10.6807 11.3984 10.4438 10.8669 10.0589 10.4825ZM9.20988 7.97422C10.0656 8.1152 10.8356 8.52523 11.4232 9.11744H11.4278C11.5221 9.21278 11.6118 9.31259 11.6966 9.41654L13.1659 8.56643C12.9683 7.96957 12.9593 7.34551 13.1179 6.76079C13.3276 5.97705 13.8355 5.27547 14.597 4.83516L14.6221 4.82005C15.3753 4.39322 16.2316 4.30512 17.0047 4.51479C17.4078 4.62245 17.7857 4.80868 18.1166 5.06277C18.4476 5.31687 18.7251 5.63383 18.9332 5.99547V5.99698C19.3707 6.7533 19.4596 7.62177 19.2507 8.40238C19.0426 9.18561 18.5323 9.89184 17.7716 10.3291L17.571 10.4478H17.5505C16.8469 10.7831 16.073 10.835 15.3624 10.6481C14.7787 10.4931 14.2433 10.1681 13.8242 9.70495L12.3572 10.5525C12.5307 11.011 12.6195 11.4973 12.6193 11.9875C12.6191 12.4802 12.5303 12.9688 12.3572 13.4301L13.8242 14.2744C14.2433 13.8053 14.7787 13.4863 15.3624 13.3313C16.1451 13.1173 17.013 13.2085 17.7717 13.6504L17.8201 13.6732V13.6763C18.553 14.1195 19.0449 14.806 19.2507 15.5804C19.3583 15.9821 19.3857 16.4011 19.3312 16.8133C19.2767 17.2256 19.1414 17.623 18.9332 17.983L18.9068 18.0361L18.9037 18.0314C18.4641 18.7621 17.7717 19.2571 17.007 19.4665C16.2225 19.673 15.3548 19.5849 14.597 19.1492V19.1431C13.8355 18.7027 13.3276 17.9995 13.1179 17.2176C12.9593 16.6345 12.9683 16.0102 13.1659 15.4135L11.6966 14.566C11.6123 14.6695 11.5211 14.7666 11.4278 14.8607L11.4232 14.8651C10.8357 15.4545 10.0656 15.8645 9.20982 16.0011V17.6989C9.81964 17.8264 10.3662 18.1317 10.7947 18.5599L10.7967 18.5646C11.3709 19.1355 11.7262 19.9312 11.7262 20.8059C11.7262 21.6778 11.3708 22.4685 10.7967 23.0426L10.7947 23.0516C10.2167 23.6257 9.42338 23.981 8.54868 23.981C7.67864 23.981 6.88426 23.6257 6.30791 23.0516H6.30582V23.0426C5.73092 22.4685 5.37487 21.6778 5.37487 20.8059C5.3743 20.3893 5.45628 19.9767 5.61607 19.592C5.77586 19.2073 6.01029 18.8581 6.30582 18.5646V18.5599H6.30785C6.73555 18.1317 7.2829 17.8264 7.89115 17.6989V16.0011C7.03459 15.8645 6.26694 15.4545 5.68013 14.8651L5.67391 14.8607C4.94043 14.1241 4.48193 13.1113 4.48193 11.9875C4.48193 10.8669 4.94043 9.85401 5.67386 9.11744H5.68007C6.26688 8.52529 7.03453 8.1152 7.8911 7.97422V6.28393C7.29188 6.15327 6.74252 5.85399 6.30779 5.42139H6.30576V5.41674C5.73086 4.83981 5.37481 4.05007 5.37481 3.17538C5.37481 2.3051 5.73086 1.50787 6.30576 0.933792L6.30779 0.930944C6.88426 0.355351 7.67864 0 8.54857 0C9.42332 0 10.2167 0.355351 10.7946 0.930944V0.93385H10.7967C11.3708 1.50787 11.7261 2.3051 11.7261 3.17538C11.7261 4.05007 11.3707 4.83981 10.7967 5.41674L10.7946 5.42139C10.3662 5.8467 9.81958 6.15173 9.20976 6.28393L9.20988 7.97422ZM17.4627 6.84732L17.4505 6.82919C17.2476 6.48738 16.9241 6.25953 16.5664 6.16079C16.1977 6.06363 15.7995 6.10483 15.4458 6.30671H15.4481C15.0951 6.50708 14.859 6.83518 14.7603 7.20267C14.7102 7.38954 14.6976 7.58445 14.723 7.77622C14.7485 7.96799 14.8115 8.15285 14.9085 8.32021L14.9153 8.32951C15.0118 8.4945 15.1399 8.63882 15.2923 8.7542C15.4447 8.86957 15.6184 8.95373 15.8034 9.00186C15.9897 9.05386 16.1845 9.0679 16.3762 9.04314C16.568 9.01839 16.7528 8.95534 16.9197 8.85774L16.9386 8.84868C17.2818 8.64366 17.5103 8.32021 17.606 7.96492C17.7032 7.59894 17.6646 7.19802 17.4627 6.84732Z" fill="white"/>
</g>
<defs>
<clipPath id="clip0_2515_3123">
<rect width="14.88" height="24" fill="white" transform="translate(4.47998)"/>
</clipPath>
</defs>
</svg>
